# xmcd
#
# Track frame offsets:
#	150
#	4680
#	30895
#	48360
#	69220
#	86130
#	106990
#	113320
#	135295
#	157820
#	173570
#	187745
#	205650
#	209545
#	225520
#
# Disc length: 3611 seconds
#
# Revision: 0
# Processed by: cddbd v1.5.2PL0 Copyright (c) Steve Scherf et al.
# Submitted via: EasyCDDAExtractor 9.0.0.1
#
DISCID=a10e190f
DTITLE=Dio - Zepp Osaka 16-10-06
DYEAR=2006
DGENRE=Hard Rock
TTITLE0=Intro
TTITLE1=Children Of The Grave
TTITLE2=Stand Up And Shout
TTITLE3=Holy Diver
TTITLE4=Gypsy
TTITLE5=Drum Solo
TTITLE6=Temple Of The King
TTITLE7=Kill The King
TTITLE8=Rainbow In The Dark
TTITLE9=Guitar Solo
TTITLE10=Keyboard Solo
TTITLE11=Man On The Silver Mountain
TTITLE12=Catch The Rainbow
TTITLE13=Long Live Rock and Roll
TTITLE14=Heaven and Hell
EXTD=
EXTT0=
EXTT1=
EXTT2=
EXTT3=
EXTT4=
EXTT5=
EXTT6=
EXTT7=
EXTT8=
EXTT9=
EXTT10=
EXTT11=
EXTT12=
EXTT13=
EXTT14=
PLAYORDER=
